<?xml version="1.0" standalone="no"?>
<!DOCTYPE svg PUBLIC "-//W3C//DTD SVG 20010904//EN"
 "http://www.w3.org/TR/2001/REC-SVG-20010904/DTD/svg10.dtd">
<svg version="1.0" xmlns="http://www.w3.org/2000/svg"
 width="1024.000000pt" height="1024.000000pt" viewBox="0 0 1024.000000 1024.000000"
 preserveAspectRatio="xMidYMid meet">
<metadata>
Created by potrace 1.11, written by Peter Selinger 2001-2013
</metadata>
<g transform="translate(0.000000,1024.000000) scale(0.100000,-0.100000)"
fill="#000000" stroke="none">
<path d="M4857 10234 c-1 -2 -48 -5 -103 -8 -55 -3 -116 -8 -135 -10 -19 -3
-61 -8 -94 -11 -32 -4 -67 -8 -76 -10 -9 -2 -40 -6 -70 -10 -30 -3 -61 -8 -69
-10 -8 -2 -33 -7 -55 -10 -23 -3 -52 -7 -65 -10 -91 -17 -150 -30 -260 -57
-69 -16 -132 -31 -140 -33 -8 -2 -53 -15 -100 -29 -47 -15 -93 -28 -103 -31
-42 -10 -352 -122 -402 -145 -11 -5 -36 -15 -55 -23 -139 -55 -430 -202 -600
-302 -199 -118 -496 -324 -649 -452 -488 -405 -888 -874 -1191 -1398 -75 -130
-102 -180 -175 -330 -45 -93 -108 -235 -140 -315 -32 -80 -63 -158 -70 -175
-46 -106 -164 -523 -199 -705 -2 -14 -9 -47 -15 -75 -6 -27 -12 -63 -15 -80
-2 -16 -9 -60 -15 -98 -14 -83 -18 -113 -27 -202 -3 -38 -8 -73 -10 -76 -10
-18 -19 -259 -18 -519 1 -289 5 -378 25 -550 5 -47 12 -102 14 -124 3 -21 9
-64 14 -95 10 -54 20 -115 26 -156 7 -46 16 -89 20 -94 2 -4 6 -24 9 -46 6
-36 44 -188 90 -360 81 -301 279 -765 464 -1090 64 -113 234 -375 334 -516 47
-65 215 -273 284 -349 93 -104 382 -390 469 -464 44 -38 91 -78 105 -90 124
-106 541 -406 564 -406 2 0 40 -22 83 -48 123 -76 368 -205 503 -265 99 -43
199 -86 230 -97 19 -6 44 -16 55 -21 23 -10 245 -90 260 -93 6 -1 48 -14 95
-28 47 -14 96 -29 110 -32 14 -4 48 -13 75 -20 57 -16 312 -72 365 -80 19 -3
45 -8 56 -10 24 -5 66 -11 139 -22 28 -3 59 -8 70 -10 10 -2 49 -6 85 -10 36
-3 79 -8 95 -10 193 -24 728 -24 960 1 81 8 141 16 165 20 14 2 48 6 75 9 28
3 57 7 65 10 8 3 33 7 55 10 22 2 87 14 145 26 58 12 114 24 125 26 11 2 90
22 175 43 622 160 1194 434 1743 834 60 43 118 87 130 97 276 230 280 235 447
400 323 322 581 655 812 1050 334 573 544 1175 644 1850 3 19 7 46 10 60 2 14
7 54 10 90 3 36 8 83 10 105 23 247 23 800 0 945 -3 14 -7 52 -10 85 -8 80
-15 135 -21 165 -3 14 -7 43 -11 65 -13 96 -41 241 -66 345 -11 47 -21 94 -24
105 -2 11 -26 97 -53 192 -183 629 -503 1243 -917 1758 -48 61 -93 115 -98
121 -6 6 -36 40 -66 75 -102 119 -390 401 -514 504 -27 22 -60 50 -75 63 -55
48 -330 251 -426 314 -413 271 -826 467 -1275 607 -91 29 -179 56 -197 62 -18
5 -40 12 -50 14 -16 3 -121 28 -178 42 -11 2 -30 6 -42 8 -11 2 -29 6 -40 9
-10 3 -34 8 -53 11 -19 4 -46 8 -60 11 -101 17 -358 53 -415 58 -38 4 -95 9
-125 11 -62 6 -638 14 -643 9z m-317 -4324 c0 -5 -5 -10 -11 -10 -5 0 -7 5 -4
10 3 6 8 10 11 10 2 0 4 -4 4 -10z m-1610 -1164 c0 -2 -7 -9 -15 -16 -13 -11
-14 -10 -9 4 5 14 24 23 24 12z"/>
</g>
</svg>
