<?xml version="1.0" standalone="no"?>
<!DOCTYPE svg PUBLIC "-//W3C//DTD SVG 20010904//EN"
 "http://www.w3.org/TR/2001/REC-SVG-20010904/DTD/svg10.dtd">
<svg version="1.0" xmlns="http://www.w3.org/2000/svg"
 width="120.000000pt" height="120.000000pt" viewBox="0 0 120.000000 120.000000"
 preserveAspectRatio="xMidYMid meet">
<metadata>
Created by potrace 1.11, written by Peter Selinger 2001-2013
</metadata>
<g transform="translate(0.000000,120.000000) scale(0.100000,-0.100000)"
fill="#000000" stroke="none">
<path d="M88 1143 c-39 -25 -48 -54 -48 -163 0 -67 -4 -99 -11 -97 -6 1 -16
-6 -22 -15 -9 -14 -7 -22 11 -41 22 -23 22 -26 22 -365 0 -224 4 -349 11 -365
26 -57 24 -57 543 -57 320 0 483 4 499 11 44 20 57 58 57 169 0 68 3 99 10 95
11 -7 40 12 40 25 0 5 -11 22 -25 38 l-25 30 0 336 c0 373 -2 384 -61 405 -22
7 -183 11 -503 11 -421 -1 -474 -2 -498 -17z"/>
</g>
</svg>
